{"title":"Texas Chainsaw 2013 CAM XViD 1MPERiUM","uid":8003913,"size":1516796243,"categoryP":"video","categoryS":"movies","magnet":"?xt=urn:btih:892fdef0f7b550be478a99b32409134fec9f8f03&amp;dn=Texas+Chainsaw+2013+CAM+XViD+1MPERiUM&amp;tr=udp%3A%2F%2Ftracker.openbittorrent.com%3A80&amp;tr=udp%3A%2F%2Fopen.demonii.com%3A1337&amp;tr=udp%3A%2F%2Ftracker.coppersurfer.tk%3A6969&amp;tr=udp%3A%2F%2Fexodus.desync.com%3A6969","seeders":3,"leechers":0,"uploader":"juggs99","files":3,"time":1357840386,"description":" &lt;a href=&quot;http://www.shotpix.com/images/76161669964264001149.jpg&quot; rel=&quot;nofollow&quot; target=&quot;_NEW&quot;&gt;http://www.shotpix.com/images/76161669964264001149.jpg&lt;/a&gt;\n\n\nFormat                                   : AVI\n\nFormat/Info                              : Audio Video Interleave\n\nFile size                                : 1.39 GiB\n\nDuration                                 : 1h 26mn\n\nOverall bit rate                         : 2 318 Kbps\n\nWriting application                      : VirtualDubMod 1.5.10.3 | www.virtualdub-fr.org || (build 2550/release)\n\nWriting library                          : VirtualDubMod build 2550/release\n\n\n\nVideo\n\nID                                       : 0\n\nFormat                                   : MPEG-4 Visual\n\nFormat profile                           : Advanced Simple@L5\n\nFormat settings, BVOP                    : 2\n\nFormat settings, QPel                    : No\n\nFormat settings, GMC                     : No warppoints\n\nFormat settings, Matrix                  : Default (H.263)\n\nMuxing mode                              : Packed bitstream\n\nCodec ID                                 : XVID\n\nCodec ID/Hint                            : XviD\n\nDuration                                 : 1h 26mn\n\nBit rate                                 : 2 114 Kbps\n\nWidth                                    : 682 pixels\n\nHeight                                   : 284 pixels\n\nDisplay aspect ratio                     : 2.40:1\n\nFrame rate                               : 29.970 fps\n\nColor space                              : YUV\n\nChroma subsampling                       : 4:2:0\n\nBit depth                                : 8 bits\n\nScan type                                : Progressive\n\nCompression mode                         : Lossy\n\nBits/(Pixel*Frame)                       : 0.364\n\nStream size                              : 1.27 GiB (91%)\n\nWriting library                          : XviD 64\n\n\n\nAudio\n\nID                                       : 1\n\nFormat                                   : AC-3\n\nFormat/Info                              : Audio Coding 3\n\nMode extension                           : CM (complete main)\n\nCodec ID                                 : 2000\n\nDuration                                 : 1h 26mn\n\nBit rate mode                            : Constant\n\nBit rate                                 : 192 Kbps\n\nChannel(s)                               : 2 channels\n\nChannel positions                        : Front: L R\n\nSampling rate                            : 48.0 KHz\n\nBit depth                                : 16 bits\n\nCompression mode                         : Lossy\n\nStream size                              : 118 MiB (8%)\n\nAlignment                                : Aligned on interleaves\n\nInterleave, duration                     : 33 ms (1.00 video frame)\n\nInterleave, preload duration             : 512 ms\n\n\n\n\n\n\n\n\n\n\n\n\n\n\n\n\n\n\n\nSources: HP - Thx\n\n\n\n","torrent":{"xt":"urn:btih:892fdef0f7b550be478a99b32409134fec9f8f03","amp;dn":"Texas+Chainsaw+2013+CAM+XViD+1MPERiUM","amp;tr":["udp%3A%2F%2Ftracker.openbittorrent.com%3A80","udp%3A%2F%2Fopen.demonii.com%3A1337","udp%3A%2F%2Ftracker.coppersurfer.tk%3A6969","udp%3A%2F%2Fexodus.desync.com%3A6969"],"infoHash":"892fdef0f7b550be478a99b32409134fec9f8f03","infoHashBuffer":{"type":"Buffer","data":[137,47,222,240,247,181,80,190,71,138,153,179,36,9,19,79,236,159,143,3]},"announce":[],"urlList":[]}}